# xmcd CD database file
#
# Track frame offsets:
#	150
#	15890
#	37302
#	81197
#	122892
#
# Disc length: 2226 seconds
#
# Revision: 0
# Processed by: cddbd v1.5.2PL0 Copyright (c) Steve Scherf et al.
# Submitted via: CDex 1.70beta2
#
DISCID=3708b005
DTITLE=山下洋輔トリオ - Frozen Days
DYEAR=1900
DGENRE=Jazz
TTITLE0=Prophase
TTITLE1=Double Helix
TTITLE2=Chiasma
TTITLE3=Interphase
TTITLE4=Mitocohondria
EXTD=
EXTT0=
EXTT1=
EXTT2=
EXTT3=
EXTT4=
PLAYORDER=
